<svg width="24" height="24" viewBox="0 0 24 24" fill="none" xmlns="http://www.w3.org/2000/svg">
<path d="M11.997 11.846C11.0708 11.846 10.2842 11.5226 9.63733 10.8757C8.99022 10.2286 8.66667 9.442 8.66667 8.516C8.66667 7.608 8.99022 6.82489 9.63733 6.16667C10.2842 5.50844 11.0708 5.17933 11.997 5.17933C12.905 5.17933 13.688 5.50844 14.346 6.16667C15.0042 6.82489 15.3333 7.608 15.3333 8.516C15.3333 9.442 15.0042 10.2286 14.346 10.8757C13.688 11.5226 12.905 11.846 11.997 11.846ZM12 10.5127C12.5487 10.5127 13.0192 10.321 13.4117 9.93767C13.8039 9.55433 14 9.07933 14 8.51267C14 7.964 13.8039 7.49356 13.4117 7.10133C13.0192 6.70889 12.5444 6.51267 11.9873 6.51267C11.43 6.51267 10.9594 6.70889 10.5757 7.10133C10.1919 7.49356 10 7.96833 10 8.52567C10 9.083 10.1917 9.55356 10.575 9.93733C10.9583 10.3209 11.4333 10.5127 12 10.5127ZM4.66667 18.8207V16.954C4.66667 16.5964 4.758 16.2602 4.94067 15.9453C5.12333 15.6304 5.37133 15.3794 5.68467 15.1923C6.63844 14.6266 7.65078 14.2009 8.72167 13.9153C9.79278 13.63 10.8856 13.4873 12 13.4873C13.1144 13.4873 14.2072 13.63 15.2783 13.9153C16.3492 14.2009 17.3616 14.6266 18.3153 15.1923C18.6287 15.3794 18.8767 15.6304 19.0593 15.9453C19.242 16.2602 19.3333 16.5964 19.3333 16.954V18.8207H4.66667ZM12 14.8207C11.0033 14.8207 10.0033 14.9659 9 15.2563C7.99667 15.547 7.012 15.9658 6.046 16.5127V17.5127H17.954V16.4873C17.0051 15.9402 16.0247 15.5257 15.0127 15.2437C14.0009 14.9617 12.9967 14.8207 12 14.8207ZM2.16233 24C1.543 24 1.02778 23.7944 0.616667 23.3833C0.205556 22.9722 0 22.457 0 21.8377V17.3333H1.33333V21.846C1.33333 22.0513 1.41878 22.2394 1.58967 22.4103C1.76056 22.5812 1.94867 22.6667 2.154 22.6667H6.66667V24H2.16233ZM0 6.66667V2.16233C0 1.543 0.205556 1.02778 0.616667 0.616667C1.02778 0.205556 1.543 0 2.16233 0H6.66667V1.33333H2.154C1.94867 1.33333 1.76056 1.41878 1.58967 1.58967C1.41878 1.76056 1.33333 1.94867 1.33333 2.154V6.66667H0ZM17.3333 24V22.6667H21.846C22.0513 22.6667 22.2394 22.5812 22.4103 22.4103C22.5812 22.2394 22.6667 22.0513 22.6667 21.846V17.3333H24V21.8377C24 22.457 23.7944 22.9722 23.3833 23.3833C22.9722 23.7944 22.457 24 21.8377 24H17.3333ZM22.6667 6.66667V2.154C22.6667 1.94867 22.5812 1.76056 22.4103 1.58967C22.2394 1.41878 22.0513 1.33333 21.846 1.33333H17.3333V0H21.8377C22.457 0 22.9722 0.205556 23.3833 0.616667C23.7944 1.02778 24 1.543 24 2.16233V6.66667H22.6667Z" fill="white"/>
</svg>
